<?xml version="1.0" encoding="iso-8859-1"?>
<!-- Uploaded to: SVG Repo, www.svgrepo.com, Generator: SVG Repo Mixer Tools -->
<svg version="1.1" id="Layer_1" xmlns="http://www.w3.org/2000/svg" xmlns:xlink="http://www.w3.org/1999/xlink" 
	 viewBox="0 0 512 512" xml:space="preserve">
<g>
	<rect x="229.037" y="129.589" style="fill:#F4BD64;" width="17.356" height="211.924"/>
	<rect x="338.748" y="129.589" style="fill:#F4BD64;" width="17.356" height="211.924"/>
	
		<rect x="90.79" y="125.321" transform="matrix(-0.9561 -0.2931 0.2931 -0.9561 126.7771 481.5778)" style="fill:#F4BD64;" width="17.356" height="211.939"/>
	<rect x="448.471" y="129.589" style="fill:#F4BD64;" width="17.356" height="211.924"/>
</g>
<path style="fill:#5DACD8;" d="M455.976,69.439c19.01,0,34.422,15.412,34.422,34.422c0,9.511-3.853,18.108-10.078,24.333
	c-5.982,5.97-14.139,9.754-23.176,10.043c-0.382,0.023-0.775,0.035-1.169,0.035H347.423H237.712H129.158
	c-19.01,0-34.41-15.4-34.41-34.41c0-9.511,3.853-18.108,10.078-24.344c6.225-6.225,14.833-10.078,24.333-10.078H455.976z"/>
<path style="fill:#4C9CBF;" d="M158.961,103.861c0-9.511,3.853-18.108,10.078-24.344c6.225-6.225,14.833-10.078,24.333-10.078
	h-64.212c-9.499,0-18.108,3.853-24.333,10.078c-6.225,6.236-10.078,14.833-10.078,24.344c0,19.01,15.4,34.41,34.41,34.41h64.212
	C174.361,138.271,158.961,122.871,158.961,103.861z"/>
<g>
	<path style="fill:#F7A872;" d="M457.145,332.84c30.291,0,54.855,24.564,54.855,54.867c0,30.291-24.564,54.855-54.855,54.855
		c-30.303,0-54.855-24.564-54.855-54.855C402.29,357.404,426.842,332.84,457.145,332.84z"/>
	<path style="fill:#F7A872;" d="M402.29,387.707c0,30.291-24.564,54.855-54.867,54.855c-30.291,0-54.855-24.564-54.855-54.855
		c0-30.303,24.564-54.867,54.855-54.867C377.726,332.84,402.29,357.404,402.29,387.707z"/>
	<path style="fill:#F7A872;" d="M292.567,387.707c0,30.291-24.564,54.855-54.855,54.855c-30.303,0-54.855-24.564-54.855-54.855
		c0-30.303,24.552-54.867,54.855-54.867C268.003,332.84,292.567,357.404,292.567,387.707z"/>
</g>
<g>
	<path style="fill:#E09461;" d="M237.712,442.562c-30.303,0-54.855-24.564-54.855-54.855c0-30.303,24.552-54.867,54.855-54.867
		c-14.752,0-26.693,24.564-26.693,54.867C211.019,417.998,222.959,442.562,237.712,442.562z"/>
	<path style="fill:#E09461;" d="M347.423,442.562c-30.303,0-54.855-24.564-54.855-54.855c0-30.303,24.552-54.867,54.855-54.867
		c-14.752,0-26.693,24.564-26.693,54.867C320.73,417.998,332.67,442.562,347.423,442.562z"/>
	<path style="fill:#E09461;" d="M457.145,442.562c-30.303,0-54.855-24.564-54.855-54.855c0-30.303,24.552-54.867,54.855-54.867
		c-14.752,0-26.693,24.564-26.693,54.867C430.452,417.998,442.393,442.562,457.145,442.562z"/>
</g>
<path style="fill:#F7A872;" d="M70.959,324.301c28.961,8.875,45.24,39.559,36.366,68.52c-8.886,28.972-39.571,45.252-68.532,36.377
	C9.82,420.312-6.459,389.627,2.427,360.666C11.301,331.694,41.986,315.414,70.959,324.301z"/>
<path style="fill:#E09461;" d="M54.856,431.607c-30.303,0-54.855-24.564-54.855-54.855c0-30.303,24.552-54.867,54.855-54.867
	c-14.752,0-26.693,24.564-26.693,54.867C28.163,407.043,40.104,431.607,54.856,431.607z"/>
</svg>